<?xml version="1.0" encoding="UTF-8" standalone="no"?>
<!-- Created with Inkscape (http://www.inkscape.org/) -->

<svg
   xmlns:dc="http://purl.org/dc/elements/1.1/"
   xmlns:cc="http://creativecommons.org/ns#"
   xmlns:rdf="http://www.w3.org/1999/02/22-rdf-syntax-ns#"
   xmlns:svg="http://www.w3.org/2000/svg"
   xmlns="http://www.w3.org/2000/svg"
   xmlns:sodipodi="http://sodipodi.sourceforge.net/DTD/sodipodi-0.dtd"
   xmlns:inkscape="http://www.inkscape.org/namespaces/inkscape"
   width="285.48474"
   height="49.466099"
   id="svg11981"
   version="1.1"
   inkscape:version="0.47 r22583"
   sodipodi:docname="New document 62">
  <defs
     id="defs11983">
    <inkscape:perspective
       sodipodi:type="inkscape:persp3d"
       inkscape:vp_x="0 : 526.18109 : 1"
       inkscape:vp_y="0 : 1000 : 0"
       inkscape:vp_z="744.09448 : 526.18109 : 1"
       inkscape:persp3d-origin="372.04724 : 350.78739 : 1"
       id="perspective11989" />
    <inkscape:perspective
       id="perspective11860"
       inkscape:persp3d-origin="0.5 : 0.33333333 : 1"
       inkscape:vp_z="1 : 0.5 : 1"
       inkscape:vp_y="0 : 1000 : 0"
       inkscape:vp_x="0 : 0.5 : 1"
       sodipodi:type="inkscape:persp3d" />
  </defs>
  <sodipodi:namedview
     id="base"
     pagecolor="#ffffff"
     bordercolor="#666666"
     borderopacity="1.0"
     inkscape:pageopacity="0.0"
     inkscape:pageshadow="2"
     inkscape:zoom="0.35"
     inkscape:cx="-427.97191"
     inkscape:cy="-26.695522"
     inkscape:document-units="px"
     inkscape:current-layer="layer1"
     showgrid="false"
     inkscape:window-width="1024"
     inkscape:window-height="575"
     inkscape:window-x="-5"
     inkscape:window-y="3"
     inkscape:window-maximized="1" />
  <metadata
     id="metadata11986">
    <rdf:RDF>
      <cc:Work
         rdf:about="">
        <dc:format>image/svg+xml</dc:format>
        <dc:type
           rdf:resource="http://purl.org/dc/dcmitype/StillImage" />
        <dc:title></dc:title>
      </cc:Work>
    </rdf:RDF>
  </metadata>
  <g
     inkscape:label="Layer 1"
     inkscape:groupmode="layer"
     id="layer1"
     transform="translate(-802.97191,-456.20056)">
    <g
       transform="translate(555.73824,23.040961)"
       id="g3114"
       inkscape:export-filename="/home/sarah/platoniko/platoniko/media/img/grass.png"
       inkscape:export-xdpi="90.044647"
       inkscape:export-ydpi="90.044647">
      <path
         id="path4293"
         d="m 263.60666,482.6257 7.03109,0 c -1.3728,-14.05018 -7.99031,-27.14837 -19.15057,-39.52213 -1.35273,-1.4998 -2.77124,-2.97947 -4.25351,-4.43727 1.25645,1.52145 2.44345,3.05859 3.55983,4.60944 9.20984,12.79415 13.54482,25.82231 12.81316,39.34996 z"
         style="fill:#225500;fill-rule:evenodd;stroke:none" />
      <path
         sodipodi:nodetypes="ccscsc"
         style="fill:#225500;fill-rule:evenodd;stroke:none"
         d="m 289.9665,482.6257 7.03109,0 c -1.3728,-14.05018 -7.99032,-27.14837 -19.15057,-39.52213 -1.35273,-1.4998 -4.75531,-1.56228 -6.23759,-3.02008 1.25645,1.52146 4.42753,1.6414 5.5439,3.19225 9.20984,12.79415 13.54483,25.82231 12.81317,39.34996 z"
         id="path4399" />
      <path
         id="path4251"
         d="m 275.33053,482.6257 7.02343,0 c -1.73261,-10.94791 -0.50915,-22.10675 3.6832,-32.97978 2.15626,-5.59243 5.09376,-11.10993 8.78696,-16.48632 -4.42587,5.20399 -8.14373,10.61124 -11.10159,16.16053 -5.75104,10.78986 -8.61211,21.92793 -8.392,33.30557 z"
         style="fill:#225500;fill-rule:evenodd;stroke:none" />
      <path
         id="path4293-7"
         d="m 358.52515,482.6257 -7.03109,0 c 1.3728,-14.05018 7.99031,-27.14837 19.15057,-39.52213 1.35273,-1.4998 2.77124,-2.97947 4.25351,-4.43727 -1.25645,1.52145 -2.44345,3.05859 -3.55982,4.60944 -9.20985,12.79415 -13.54483,25.82231 -12.81317,39.34996 z"
         style="fill:#225500;fill-rule:evenodd;stroke:none" />
      <path
         sodipodi:nodetypes="ccscsc"
         style="fill:#225500;fill-rule:evenodd;stroke:none"
         d="m 359.40395,482.6257 -7.03108,0 c 1.37279,-14.05018 7.99031,-27.14837 19.15056,-39.52213 1.35273,-1.4998 4.75531,-1.56228 6.23759,-3.02008 -1.25645,1.52146 -4.42753,1.6414 -5.5439,3.19225 -9.20984,12.79415 -13.54482,25.82231 -12.81317,39.34996 z"
         id="path4399-3" />
      <path
         id="path4251-2"
         d="m 318.68235,482.6257 -7.02343,0 c 1.73261,-10.94791 0.50915,-22.10675 -3.6832,-32.97978 -2.15626,-5.59243 -5.09376,-11.10993 -8.78695,-16.48632 4.42586,5.20399 8.14372,10.61124 11.10158,16.16053 5.75104,10.78986 8.61212,21.92793 8.392,33.30557 z"
         style="fill:#225500;fill-rule:evenodd;stroke:none" />
      <path
         style="fill:#225500;fill-rule:evenodd;stroke:none"
         d="m 354.7711,482.6257 7.03108,0 c -1.37279,-14.05018 -7.99031,-27.14837 -19.15056,-39.52213 -1.35274,-1.4998 -2.77124,-2.97947 -4.25352,-4.43727 1.25645,1.52145 2.44345,3.05859 3.55983,4.60943 9.20984,12.79416 13.54482,25.82231 12.81317,39.34996 z"
         id="path4464" />
      <path
         id="path4466"
         d="m 333.84242,482.6257 7.03109,0 c -1.3728,-14.05018 -7.99031,-27.14837 -19.15057,-39.52213 -1.35273,-1.4998 -4.75531,-1.56228 -6.23758,-3.02008 1.25645,1.52146 4.42752,1.6414 5.5439,3.19225 9.20984,12.79415 13.54482,25.82231 12.81316,39.34996 z"
         style="fill:#225500;fill-rule:evenodd;stroke:none"
         sodipodi:nodetypes="ccscsc" />
      <path
         style="fill:#225500;fill-rule:evenodd;stroke:none"
         d="m 382.4574,482.6257 7.02343,0 c -1.73262,-10.94791 -0.50915,-22.10675 3.68319,-32.97978 2.15627,-5.59243 5.09377,-11.10993 8.78696,-16.48632 -4.42586,5.20399 -8.14372,10.61124 -11.10158,16.16053 -5.75104,10.78986 -8.61212,21.92793 -8.392,33.30557 z"
         id="path4468" />
      <path
         id="path4492"
         d="m 321.10816,482.6257 -7.03109,0 c 1.3728,-14.05018 7.99031,-27.14837 19.15057,-39.52213 1.35273,-1.4998 2.77124,-2.97947 4.25351,-4.43727 -1.25645,1.52145 -2.44345,3.05859 -3.55982,4.60944 -9.20985,12.79415 -13.54483,25.82231 -12.81317,39.34996 z"
         style="fill:#225500;fill-rule:evenodd;stroke:none" />
      <path
         sodipodi:nodetypes="ccscsc"
         style="fill:#225500;fill-rule:evenodd;stroke:none"
         d="m 310.76186,482.6257 -7.03108,0 c 1.37279,-14.05018 7.99031,-27.14837 19.15056,-39.52213 1.35274,-1.4998 4.75532,-1.56228 6.23759,-3.02008 -1.25645,1.52146 -4.42753,1.6414 -5.5439,3.19225 -9.20984,12.79415 -13.54482,25.82231 -12.81317,39.34996 z"
         id="path4494" />
      <path
         id="path4496"
         d="m 347.55477,482.6257 -7.02344,0 c 1.73262,-10.94791 0.50916,-22.10675 -3.68319,-32.97978 -2.15626,-5.59243 -5.09376,-11.10993 -8.78696,-16.48632 4.42587,5.20399 8.14372,10.61124 11.10159,16.16053 5.75104,10.78986 8.61211,21.92793 8.392,33.30557 z"
         style="fill:#225500;fill-rule:evenodd;stroke:none" />
      <path
         id="path4293-2"
         d="m 440.78528,482.6257 7.03108,0 c -1.37279,-14.05018 -7.99031,-27.14837 -19.15056,-39.52213 -1.35273,-1.4998 -2.77124,-2.97947 -4.25352,-4.43727 1.25645,1.52145 2.44346,3.05859 3.55983,4.60944 9.20984,12.79415 13.54483,25.82231 12.81317,39.34996 z"
         style="fill:#225500;fill-rule:evenodd;stroke:none" />
      <path
         sodipodi:nodetypes="ccscsc"
         style="fill:#225500;fill-rule:evenodd;stroke:none"
         d="m 417.95232,482.6257 7.03109,0 c -1.3728,-14.05018 -7.99031,-27.14837 -19.15057,-39.52213 -1.35273,-1.4998 -4.75531,-1.56228 -6.23758,-3.02008 1.25645,1.52146 4.42752,1.6414 5.5439,3.19225 9.20984,12.79415 13.54482,25.82231 12.81316,39.34996 z"
         id="path4399-5" />
      <path
         id="path4251-1"
         d="m 490.70091,482.6257 7.02343,0 c -1.73262,-10.94791 -0.50915,-22.10675 3.68319,-32.97978 2.15627,-5.59243 5.09377,-11.10993 8.78696,-16.48632 -4.42586,5.20399 -8.14372,10.61124 -11.10158,16.16053 -5.75104,10.78986 -8.61212,21.92793 -8.392,33.30557 z"
         style="fill:#225500;fill-rule:evenodd;stroke:none" />
      <path
         id="path4293-7-1"
         d="m 462.41583,482.6257 -7.03108,0 c 1.37279,-14.05018 7.99031,-27.14837 19.15056,-39.52213 1.35273,-1.4998 2.77124,-2.97947 4.25352,-4.43727 -1.25645,1.52145 -2.44346,3.05859 -3.55983,4.60944 -9.20984,12.79415 -13.54482,25.82231 -12.81317,39.34996 z"
         style="fill:#225500;fill-rule:evenodd;stroke:none" />
      <path
         sodipodi:nodetypes="ccscsc"
         style="fill:#225500;fill-rule:evenodd;stroke:none"
         d="m 473.3363,482.6257 -7.03109,0 c 1.3728,-14.05018 7.99031,-27.14837 19.15057,-39.52213 1.35273,-1.4998 4.75531,-1.56228 6.23758,-3.02008 -1.25645,1.52146 -4.42752,1.6414 -5.54389,3.19225 -9.20985,12.79415 -13.54483,25.82231 -12.81317,39.34996 z"
         id="path4399-3-1" />
      <path
         id="path4251-2-0"
         d="m 462.53269,482.6257 -7.02343,0 c 1.73261,-10.94791 0.50915,-22.10675 -3.6832,-32.97978 -2.15626,-5.59243 -5.09376,-11.10993 -8.78696,-16.48632 4.42587,5.20399 8.14373,10.61124 11.10159,16.16053 5.75104,10.78986 8.61211,21.92793 8.392,33.30557 z"
         style="fill:#225500;fill-rule:evenodd;stroke:none" />
      <path
         style="fill:#225500;fill-rule:evenodd;stroke:none"
         d="m 519.40772,482.6257 7.03109,0 c -1.3728,-14.05018 -7.99031,-27.14837 -19.15057,-39.52213 -1.35273,-1.4998 -2.77124,-2.97947 -4.25351,-4.43727 1.25645,1.52145 2.44345,3.05859 3.55983,4.60943 9.20984,12.79416 13.54482,25.82231 12.81316,39.34996 z"
         id="path4464-7" />
      <path
         id="path4466-7"
         d="m 480.10412,482.6257 7.03108,0 c -1.37279,-14.05018 -7.99031,-27.14837 -19.15056,-39.52213 -1.35274,-1.4998 -4.75532,-1.56228 -6.23759,-3.02008 1.25645,1.52146 4.42753,1.6414 5.5439,3.19225 9.20984,12.79415 13.54482,25.82231 12.81317,39.34996 z"
         style="fill:#225500;fill-rule:evenodd;stroke:none"
         sodipodi:nodetypes="ccscsc" />
      <path
         style="fill:#225500;fill-rule:evenodd;stroke:none"
         d="m 452.58091,482.6257 7.02344,0 c -1.73262,-10.94791 -0.50915,-22.10675 3.68319,-32.97978 2.15627,-5.59243 5.09377,-11.10993 8.78696,-16.48632 -4.42586,5.20399 -8.14372,10.61124 -11.10158,16.16053 -5.75105,10.78986 -8.61212,21.92793 -8.39201,33.30557 z"
         id="path4468-8" />
      <path
         id="path4492-8"
         d="m 417.14837,482.6257 -7.03108,0 c 1.37279,-14.05018 7.99031,-27.14837 19.15056,-39.52213 1.35273,-1.4998 2.77124,-2.97947 4.25352,-4.43727 -1.25645,1.52145 -2.44346,3.05859 -3.55983,4.60944 -9.20984,12.79415 -13.54483,25.82231 -12.81317,39.34996 z"
         style="fill:#225500;fill-rule:evenodd;stroke:none" />
      <path
         sodipodi:nodetypes="ccscsc"
         style="fill:#225500;fill-rule:evenodd;stroke:none"
         d="m 479.53625,482.6257 -7.03109,0 c 1.3728,-14.05018 7.99031,-27.14837 19.15057,-39.52213 1.35273,-1.4998 4.75531,-1.56228 6.23758,-3.02008 -1.25645,1.52146 -4.42752,1.6414 -5.5439,3.19225 -9.20984,12.79415 -13.54482,25.82231 -12.81316,39.34996 z"
         id="path4494-4" />
      <path
         id="path4496-9"
         d="m 514.94769,482.6257 -7.02344,0 c 1.73262,-10.94791 0.50916,-22.10675 -3.68319,-32.97978 -2.15626,-5.59243 -5.09377,-11.10993 -8.78696,-16.48632 4.42587,5.20399 8.14372,10.61124 11.10158,16.16053 5.75105,10.78986 8.61212,21.92793 8.39201,33.30557 z"
         style="fill:#225500;fill-rule:evenodd;stroke:none" />
    </g>
    <g
       transform="translate(555.73824,23.040961)"
       id="g3087"
       inkscape:export-filename="/home/sarah/platoniko/platoniko/media/img/grass.png"
       inkscape:export-xdpi="90.044647"
       inkscape:export-ydpi="90.044647">
      <path
         id="path4305"
         d="m 254.30719,482.6257 -4.72079,0 c 0.3797,-7.25809 3.78385,-14.01551 9.7366,-20.27843 3.7504,-3.94527 8.49824,-7.55693 14.02174,-10.7009 -4.83907,3.47267 -8.73155,7.30377 -11.54925,11.32591 -4.47176,6.38253 -8.52038,13.01547 -7.4883,19.65342 z"
         style="fill:#44aa00;fill-rule:evenodd;stroke:none" />
      <path
         id="path4297"
         d="m 274.97208,482.6257 7.03004,0 c -1.08803,-8.83753 -4.35857,-17.40276 -9.56456,-25.39385 -2.43159,-3.73234 -5.28217,-7.32589 -8.51172,-10.7423 2.57312,3.65013 4.71358,7.41201 6.40468,11.24046 3.62031,8.19578 5.16787,16.53856 4.64156,24.89569 z"
         style="fill:#44aa00;fill-rule:evenodd;stroke:none" />
      <path
         id="path4299"
         d="m 289.735,482.6257 5.25225,0 c -0.49144,-3.76613 -1.53472,-6.87494 -3.77401,-10.39885 -2.84912,-4.45792 -5.46014,-8.67113 -8.79117,-12.78404 0,0 0,0 0,0 -3.30197,-4.1149 -6.02394,-8.43536 -5.94117,-12.91568 0.0426,-2.75567 1.15413,-5.53237 3.27231,-8.08136 -2.49514,2.44215 -4.06586,5.20145 -4.54106,8.04539 -0.75903,4.62169 1.32318,9.28295 4.11124,13.6351 0,0 0,0 0,0 2.75934,4.35461 6.16357,8.52751 8.14803,12.78216 0,0 0,0 0,0 1.57841,3.3575 2.33605,6.28831 2.26358,9.71728 z"
         style="fill:#44aa00;fill-rule:evenodd;stroke:none" />
      <path
         id="path4305-1"
         d="m 313.00818,482.6257 -4.72079,0 c 0.3797,-7.25809 3.78385,-14.01551 9.7366,-20.27843 3.7504,-3.94527 8.49824,-7.55693 14.02175,-10.7009 -4.83908,3.47267 -8.73156,7.30377 -11.54926,11.32591 -4.47176,6.38253 -8.52038,13.01547 -7.4883,19.65342 z"
         style="fill:#44aa00;fill-rule:evenodd;stroke:none" />
      <path
         id="path4297-0"
         d="m 374.28393,482.6257 -7.03003,0 c 1.08803,-8.83754 4.35857,-17.40276 9.56455,-25.39385 2.4316,-3.73234 5.28217,-7.32589 8.51173,-10.7423 -2.57312,3.65013 -4.71358,7.41201 -6.40469,11.24046 -3.62031,8.19578 -5.16787,16.53856 -4.64156,24.89569 z"
         style="fill:#44aa00;fill-rule:evenodd;stroke:none" />
      <path
         id="path4299-6"
         d="m 343.51519,482.62569 -5.25224,0 c 0.49143,-3.76613 1.53471,-6.87493 3.774,-10.39884 2.84913,-4.45792 5.46015,-8.67113 8.79117,-12.78404 0,0 0,0 0,0 3.30197,-4.1149 6.02395,-8.43536 5.94117,-12.91568 -0.0427,-2.75567 -1.15413,-5.53237 -3.2723,-8.08136 2.49514,2.44215 4.06585,5.20145 4.54105,8.04539 0.75904,4.62169 -1.32317,9.28295 -4.11123,13.6351 0,0 0,0 0,0 -2.75935,4.35461 -6.16357,8.52751 -8.14803,12.78216 0,0 0,0 0,0 -1.57842,3.3575 -2.33606,6.28831 -2.26359,9.71728 z"
         style="fill:#44aa00;fill-rule:evenodd;stroke:none" />
      <path
         style="fill:#44aa00;fill-rule:evenodd;stroke:none"
         d="m 364.74193,482.6257 4.72079,0 c -0.3797,-7.25809 -3.78385,-14.01551 -9.73661,-20.27843 -3.75039,-3.94527 -8.49823,-7.55693 -14.02174,-10.7009 4.83908,3.47267 8.73156,7.30377 11.54925,11.32591 4.47177,6.38253 8.52039,13.01547 7.48831,19.65342 z"
         id="path4470" />
      <path
         style="fill:#44aa00;fill-rule:evenodd;stroke:none"
         d="m 348.36655,482.62569 7.03003,0 c -1.08803,-8.83753 -4.35857,-17.40275 -9.56455,-25.39385 -2.4316,-3.73233 -5.28217,-7.32588 -8.51172,-10.74229 2.57311,3.65012 4.71357,7.41201 6.40468,11.24045 3.62031,8.19578 5.16787,16.53857 4.64156,24.8957 z"
         id="path4472" />
      <path
         style="fill:#44aa00;fill-rule:evenodd;stroke:none"
         d="m 309.38879,482.62569 5.25225,0 c -0.49143,-3.76613 -1.53472,-6.87493 -3.77401,-10.39884 -2.84913,-4.45792 -5.46014,-8.67113 -8.79117,-12.78404 0,0 0,0 0,0 -3.30197,-4.1149 -6.02394,-8.43536 -5.94117,-12.91568 0.0427,-2.75567 1.15413,-5.53237 3.2723,-8.08136 -2.49514,2.44215 -4.06585,5.20145 -4.54105,8.04539 -0.75904,4.62169 1.32317,9.28295 4.11123,13.6351 0,0 0,0 0,0 2.75935,4.35461 6.16358,8.52751 8.14803,12.78216 0,0 0,0 0,0 1.57842,3.3575 2.33606,6.28831 2.26359,9.71728 z"
         id="path4478" />
      <path
         id="path4498"
         d="m 327.97497,482.6257 -4.72079,0 c 0.3797,-7.25809 3.78385,-14.01551 9.7366,-20.27843 3.7504,-3.94527 8.49824,-7.55693 14.02174,-10.7009 -4.83907,3.47267 -8.73155,7.30377 -11.54925,11.32591 -4.47176,6.38253 -8.52039,13.01547 -7.4883,19.65342 z"
         style="fill:#44aa00;fill-rule:evenodd;stroke:none" />
      <path
         id="path4500"
         d="m 304.26608,482.62569 -7.03003,0 c 1.08803,-8.83753 4.35857,-17.40275 9.56455,-25.39385 2.43159,-3.73233 5.28217,-7.32588 8.51172,-10.74229 -2.57312,3.65012 -4.71358,7.41201 -6.40469,11.24045 -3.6203,8.19578 -5.16786,16.53857 -4.64155,24.8957 z"
         style="fill:#44aa00;fill-rule:evenodd;stroke:none" />
      <path
         id="path4506"
         d="m 375.31964,482.62569 -5.25225,0 c 0.49143,-3.76613 1.53471,-6.87493 3.77401,-10.39884 2.84912,-4.45792 5.46014,-8.67113 8.79117,-12.78404 0,0 0,0 0,0 3.30197,-4.1149 6.02394,-8.43536 5.94117,-12.91568 -0.0426,-2.75567 -1.15413,-5.53237 -3.2723,-8.08136 2.49514,2.44215 4.06585,5.20145 4.54105,8.04539 0.75904,4.62169 -1.32317,9.28295 -4.11123,13.6351 0,0 0,0 0,0 -2.75935,4.35461 -6.16358,8.52751 -8.14804,12.78216 0,0 0,0 0,0 -1.57842,3.3575 -2.33606,6.28831 -2.26358,9.71728 z"
         style="fill:#44aa00;fill-rule:evenodd;stroke:none" />
      <path
         id="path4305-16"
         d="m 452.80269,482.6257 4.72079,0 c -0.3797,-7.25809 -3.78385,-14.01551 -9.73661,-20.27843 -3.7504,-3.94527 -8.49823,-7.55693 -14.02174,-10.7009 4.83907,3.47267 8.73156,7.30377 11.54925,11.32591 4.47177,6.38253 8.52039,13.01547 7.48831,19.65342 z"
         style="fill:#44aa00;fill-rule:evenodd;stroke:none" />
      <path
         id="path4297-02"
         d="m 485.77241,482.6257 7.03003,0 c -1.08803,-8.83753 -4.35857,-17.40276 -9.56455,-25.39385 -2.4316,-3.73234 -5.28218,-7.32589 -8.51173,-10.7423 2.57312,3.65013 4.71358,7.41201 6.40469,11.24046 3.6203,8.19578 5.16787,16.53856 4.64156,24.89569 z"
         style="fill:#44aa00;fill-rule:evenodd;stroke:none" />
      <path
         id="path4299-3"
         d="m 490.86089,482.6257 5.25225,0 c -0.49144,-3.76613 -1.53472,-6.87494 -3.77401,-10.39885 -2.84913,-4.45792 -5.46015,-8.67113 -8.79117,-12.78404 0,0 0,0 0,0 -3.30197,-4.1149 -6.02395,-8.43536 -5.94117,-12.91568 0.0427,-2.75567 1.15413,-5.53237 3.2723,-8.08136 -2.49514,2.44215 -4.06585,5.20145 -4.54105,8.04539 -0.75904,4.62169 1.32317,9.28295 4.11123,13.6351 0,0 0,0 0,0 2.75935,4.35461 6.16357,8.52751 8.14803,12.78216 0,0 0,0 0,0 1.57842,3.3575 2.33606,6.28831 2.26359,9.71728 z"
         style="fill:#44aa00;fill-rule:evenodd;stroke:none" />
      <path
         id="path4305-1-4"
         d="m 395.60096,482.6257 -4.7208,0 c 0.3797,-7.25809 3.78386,-14.01551 9.73661,-20.27843 3.7504,-3.94527 8.49824,-7.55693 14.02174,-10.7009 -4.83907,3.47267 -8.73156,7.30377 -11.54925,11.32591 -4.47177,6.38253 -8.52039,13.01547 -7.4883,19.65342 z"
         style="fill:#44aa00;fill-rule:evenodd;stroke:none" />
      <path
         id="path4297-0-1"
         d="m 441.25371,482.6257 -7.03003,0 c 1.08803,-8.83754 4.35857,-17.40276 9.56456,-25.39385 2.43159,-3.73234 5.28217,-7.32589 8.51172,-10.7423 -2.57312,3.65013 -4.71358,7.41201 -6.40469,11.24046 -3.6203,8.19578 -5.16787,16.53856 -4.64156,24.89569 z"
         style="fill:#44aa00;fill-rule:evenodd;stroke:none" />
      <path
         id="path4299-6-3"
         d="m 479.17042,482.62569 -5.25224,0 c 0.49143,-3.76613 1.53471,-6.87493 3.774,-10.39884 2.84913,-4.45792 5.46015,-8.67113 8.79117,-12.78404 0,0 0,0 0,0 3.30197,-4.1149 6.02395,-8.43536 5.94117,-12.91568 -0.0426,-2.75567 -1.15413,-5.53237 -3.2723,-8.08136 2.49514,2.44215 4.06585,5.20145 4.54105,8.04539 0.75904,4.62169 -1.32317,9.28295 -4.11123,13.6351 0,0 0,0 0,0 -2.75935,4.35461 -6.16357,8.52751 -8.14803,12.78216 0,0 0,0 0,0 -1.57842,3.3575 -2.33606,6.28831 -2.26359,9.71728 z"
         style="fill:#44aa00;fill-rule:evenodd;stroke:none" />
      <path
         style="fill:#44aa00;fill-rule:evenodd;stroke:none"
         d="m 431.3602,482.6257 4.7208,0 c -0.3797,-7.25809 -3.78386,-14.01551 -9.73661,-20.27843 -3.7504,-3.94527 -8.49824,-7.55693 -14.02174,-10.7009 4.83907,3.47267 8.73156,7.30377 11.54925,11.32591 4.47176,6.38253 8.52039,13.01547 7.4883,19.65342 z"
         id="path4470-0" />
      <path
         style="fill:#44aa00;fill-rule:evenodd;stroke:none"
         d="m 452.41743,482.62569 7.03003,0 c -1.08803,-8.83753 -4.35857,-17.40275 -9.56455,-25.39385 -2.4316,-3.73233 -5.28217,-7.32588 -8.51172,-10.74229 2.57311,3.65012 4.71357,7.41201 6.40468,11.24045 3.62031,8.19578 5.16787,16.53857 4.64156,24.8957 z"
         id="path4472-3" />
      <path
         style="fill:#44aa00;fill-rule:evenodd;stroke:none"
         d="m 436.06343,482.62569 5.25225,0 c -0.49144,-3.76613 -1.53472,-6.87493 -3.77401,-10.39884 -2.84913,-4.45792 -5.46015,-8.67113 -8.79117,-12.78404 0,0 0,0 0,0 -3.30197,-4.1149 -6.02395,-8.43536 -5.94117,-12.91568 0.0427,-2.75567 1.15413,-5.53237 3.2723,-8.08136 -2.49514,2.44215 -4.06585,5.20145 -4.54105,8.04539 -0.75904,4.62169 1.32317,9.28295 4.11123,13.6351 0,0 0,0 0,0 2.75935,4.35461 6.16357,8.52751 8.14803,12.78216 0,0 0,0 0,0 1.57842,3.3575 2.33606,6.28831 2.26359,9.71728 z"
         id="path4478-2" />
      <path
         id="path4498-9"
         d="m 419.42594,482.6257 -4.72079,0 c 0.3797,-7.25809 3.78385,-14.01551 9.7366,-20.27843 3.7504,-3.94527 8.49824,-7.55693 14.02174,-10.7009 -4.83907,3.47267 -8.73155,7.30377 -11.54925,11.32591 -4.47176,6.38253 -8.52038,13.01547 -7.4883,19.65342 z"
         style="fill:#44aa00;fill-rule:evenodd;stroke:none" />
      <path
         id="path4500-7"
         d="m 436.48873,482.62569 -7.03003,0 c 1.08803,-8.83753 4.35857,-17.40275 9.56455,-25.39385 2.43159,-3.73233 5.28216,-7.32588 8.51172,-10.74229 -2.57312,3.65012 -4.71358,7.41201 -6.40469,11.24045 -3.6203,8.19578 -5.16786,16.53857 -4.64155,24.8957 z"
         style="fill:#44aa00;fill-rule:evenodd;stroke:none" />
      <path
         id="path4506-8"
         d="m 412.34023,482.62569 -5.25225,0 c 0.49144,-3.76613 1.53472,-6.87493 3.77401,-10.39884 2.84913,-4.45792 5.46014,-8.67113 8.79117,-12.78404 0,0 0,0 0,0 3.30197,-4.1149 6.02395,-8.43536 5.94117,-12.91568 -0.0427,-2.75567 -1.15413,-5.53237 -3.2723,-8.08136 2.49514,2.44215 4.06585,5.20145 4.54105,8.04539 0.75904,4.62169 -1.32317,9.28295 -4.11123,13.6351 0,0 0,0 0,0 -2.75935,4.35461 -6.16358,8.52751 -8.14804,12.78216 0,0 0,0 0,0 -1.57841,3.3575 -2.33605,6.28831 -2.26358,9.71728 z"
         style="fill:#44aa00;fill-rule:evenodd;stroke:none" />
      <path
         style="fill:#44aa00;fill-rule:evenodd;stroke:none"
         d="m 520.79687,482.6257 -7.03003,0 c 1.08803,-8.83754 4.35857,-17.40276 9.56455,-25.39385 2.4316,-3.73234 5.28217,-7.32589 8.51173,-10.7423 -2.57312,3.65013 -4.71358,7.41201 -6.40469,11.24046 -3.62031,8.19578 -5.16787,16.53856 -4.64156,24.89569 z"
         id="path5534" />
    </g>
    <g
       transform="translate(555.73824,23.040961)"
       id="g3140"
       style="fill:#47dc19;fill-opacity:1"
       inkscape:export-filename="/home/sarah/platoniko/platoniko/media/img/grass.png"
       inkscape:export-xdpi="90.044647"
       inkscape:export-ydpi="90.044647">
      <path
         sodipodi:nodetypes="ccccccc"
         id="path4295"
         d="m 265.74235,482.6257 5.42337,0 c -1.57473,-9.49993 0.30085,-22.90196 9.14529,-30.97239 4.26842,-3.89626 13.32009,-4.06834 19.48524,-6.80078 -6.55803,2.30193 -16.23524,2.13579 -21.26853,5.85655 -10.43683,7.71873 -12.86033,21.1851 -12.78537,31.91662 l 0,0 z"
         style="fill:#47dc19;fill-opacity:1;fill-rule:evenodd;stroke:none" />
      <path
         id="path4303"
         d="m 285.27861,482.6257 3.99703,0 -3.33034,-33.31007 -0.66669,33.31007 z"
         style="fill:#47dc19;fill-opacity:1;fill-rule:evenodd;stroke:none" />
      <path
         id="path4301"
         d="m 275.34587,482.6257 4.5067,0 c -2.30796,-9.34252 -6.49842,-17.88972 -16.14886,-24.45422 -4.47179,-3.04111 -9.56036,-5.63861 -15.04943,-7.70632 5.08328,2.47701 9.59035,5.40819 13.36277,8.66382 8.13665,7.02085 12.77522,15.00133 13.32882,23.49672 z"
         style="fill:#47dc19;fill-opacity:1;fill-rule:evenodd;stroke:none" />
      <path
         sodipodi:nodetypes="ccccccc"
         id="path4295-1"
         d="m 359.64286,482.6257 -5.42337,0 c 1.57473,-9.49993 -0.30084,-22.90196 -9.14528,-30.97239 -4.26842,-3.89626 -13.3201,-4.06834 -19.48525,-6.80078 6.55803,2.30193 16.23524,2.13579 21.26853,5.85655 10.43683,7.71873 12.86034,21.1851 12.78537,31.91662 l 0,0 z"
         style="fill:#47dc19;fill-opacity:1;fill-rule:evenodd;stroke:none" />
      <path
         id="path4303-7"
         d="m 370.80716,482.6257 -3.99704,0 3.33034,-33.31007 0.6667,33.31007 z"
         style="fill:#47dc19;fill-opacity:1;fill-rule:evenodd;stroke:none" />
      <path
         id="path4301-5"
         d="m 342.7494,482.6257 -4.5067,0 c 2.30796,-9.34252 6.49842,-17.88971 16.14885,-24.45422 4.47179,-3.04111 9.56037,-5.63861 15.04944,-7.70632 -5.08328,2.47701 -9.59035,5.40819 -13.36277,8.66382 -8.13665,7.02085 -12.77523,15.00133 -13.32882,23.49672 z"
         style="fill:#47dc19;fill-opacity:1;fill-rule:evenodd;stroke:none" />
      <path
         style="fill:#47dc19;fill-opacity:1;fill-rule:evenodd;stroke:none"
         d="m 321.84895,482.6257 5.42336,0 c -1.57473,-9.49993 0.30085,-22.90196 9.1453,-30.97239 4.26841,-3.89626 13.32009,-4.06834 19.48524,-6.80078 -6.55803,2.30193 -16.23525,2.13579 -21.26853,5.85655 -10.43683,7.71873 -12.86034,21.1851 -12.78537,31.91662 l 0,0 z"
         id="path4476"
         sodipodi:nodetypes="ccccccc" />
      <path
         style="fill:#47dc19;fill-opacity:1;fill-rule:evenodd;stroke:none"
         d="m 316.29718,482.6257 3.99704,0 -3.33034,-33.31007 -0.6667,33.31007 z"
         id="path4480" />
      <path
         style="fill:#47dc19;fill-opacity:1;fill-rule:evenodd;stroke:none"
         d="m 363.06345,482.6257 4.5067,0 c -2.30796,-9.34252 -6.49842,-17.88972 -16.14886,-24.45422 -4.47179,-3.04111 -9.56036,-5.63861 -15.04943,-7.70632 5.08328,2.47701 9.59035,5.40819 13.36277,8.66382 8.13665,7.02085 12.77522,15.00133 13.32882,23.49672 z"
         id="path4482" />
      <path
         sodipodi:nodetypes="ccccccc"
         id="path4504"
         d="m 357.77201,482.6257 -5.42337,0 c 1.57473,-9.49993 -0.30085,-22.90196 -9.14529,-30.97239 -4.26842,-3.89626 -13.32009,-4.06834 -19.48524,-6.80078 6.55803,2.30193 16.23524,2.13579 21.26853,5.85655 10.43683,7.71873 12.86033,21.1851 12.78537,31.91662 l 0,0 z"
         style="fill:#47dc19;fill-opacity:1;fill-rule:evenodd;stroke:none" />
      <path
         id="path4508"
         d="m 324.03592,482.6257 -3.99703,0 3.33034,-33.31007 0.66669,33.31007 z"
         style="fill:#47dc19;fill-opacity:1;fill-rule:evenodd;stroke:none" />
      <path
         id="path4510"
         d="m 325.91175,482.6257 -4.5067,0 c 2.30796,-9.34252 6.49842,-17.88971 16.14885,-24.45422 4.4718,-3.04111 9.56037,-5.63861 15.04944,-7.70632 -5.08328,2.47701 -9.59035,5.40819 -13.36277,8.66382 -8.13665,7.02085 -12.77522,15.00133 -13.32882,23.49672 z"
         style="fill:#47dc19;fill-opacity:1;fill-rule:evenodd;stroke:none" />
      <path
         sodipodi:nodetypes="ccccccc"
         id="path4295-3"
         d="m 402.41071,482.6257 5.42337,0 c -1.57473,-9.49993 0.30085,-22.90196 9.14529,-30.97239 4.26842,-3.89626 13.32009,-4.06834 19.48524,-6.80078 -6.55803,2.30193 -16.23524,2.13579 -21.26853,5.85655 -10.43683,7.71873 -12.86033,21.1851 -12.78537,31.91662 l 0,0 z"
         style="fill:#47dc19;fill-opacity:1;fill-rule:evenodd;stroke:none" />
      <path
         id="path4303-0"
         d="m 403.14332,482.6257 3.99704,0 -3.33034,-33.31007 -0.6667,33.31007 z"
         style="fill:#47dc19;fill-opacity:1;fill-rule:evenodd;stroke:none" />
      <path
         id="path4301-0"
         d="m 502.00425,482.6257 4.5067,0 c -2.30796,-9.34252 -6.49842,-17.88972 -16.14885,-24.45422 -4.47179,-3.04111 -9.56037,-5.63861 -15.04944,-7.70632 5.08328,2.47701 9.59035,5.40819 13.36277,8.66382 8.13665,7.02085 12.77523,15.00133 13.32882,23.49672 z"
         style="fill:#47dc19;fill-opacity:1;fill-rule:evenodd;stroke:none" />
      <path
         sodipodi:nodetypes="ccccccc"
         id="path4295-1-8"
         d="m 476.96543,482.6257 -5.42337,0 c 1.57473,-9.49993 -0.30085,-22.90196 -9.14529,-30.97239 -4.26842,-3.89626 -13.32009,-4.06834 -19.48524,-6.80078 6.55803,2.30193 16.23524,2.13579 21.26852,5.85655 10.43683,7.71873 12.86034,21.1851 12.78538,31.91662 l 0,0 z"
         style="fill:#47dc19;fill-opacity:1;fill-rule:evenodd;stroke:none" />
      <path
         id="path4303-7-1"
         d="m 399.99285,482.6257 -3.99703,0 3.33033,-33.31007 0.6667,33.31007 z"
         style="fill:#47dc19;fill-opacity:1;fill-rule:evenodd;stroke:none" />
      <path
         id="path4301-5-3"
         d="m 463.14186,482.6257 -4.50669,0 c 2.30795,-9.34252 6.49842,-17.88971 16.14885,-24.45422 4.47179,-3.04111 9.56037,-5.63861 15.04944,-7.70632 -5.08328,2.47701 -9.59035,5.40819 -13.36277,8.66382 -8.13665,7.02085 -12.77523,15.00133 -13.32883,23.49672 z"
         style="fill:#47dc19;fill-opacity:1;fill-rule:evenodd;stroke:none" />
      <path
         style="fill:#47dc19;fill-opacity:1;fill-rule:evenodd;stroke:none"
         d="m 485.79819,482.6257 5.42337,0 c -1.57473,-9.49993 0.30085,-22.90196 9.14529,-30.97239 4.26842,-3.89626 13.3201,-4.06834 19.48524,-6.80078 -6.55803,2.30193 -16.23524,2.13579 -21.26853,5.85655 -10.43683,7.71873 -12.86033,21.1851 -12.78537,31.91662 l 0,0 z"
         id="path4476-2"
         sodipodi:nodetypes="ccccccc" />
      <path
         style="fill:#47dc19;fill-opacity:1;fill-rule:evenodd;stroke:none"
         d="m 398.37831,482.6257 3.99704,0 -3.33034,-33.31007 -0.6667,33.31007 z"
         id="path4480-3" />
      <path
         style="fill:#47dc19;fill-opacity:1;fill-rule:evenodd;stroke:none"
         d="m 528.21172,482.6257 4.5067,0 c -2.30796,-9.34252 -6.49842,-17.88972 -16.14886,-24.45422 -4.47179,-3.04111 -9.56036,-5.63861 -15.04944,-7.70632 5.08329,2.47701 9.59035,5.40819 13.36277,8.66382 8.13666,7.02085 12.77523,15.00133 13.32883,23.49672 z"
         id="path4482-6" />
      <path
         sodipodi:nodetypes="ccccccc"
         id="path4504-3"
         d="m 424.55044,482.6257 -5.42337,0 c 1.57473,-9.49993 -0.30085,-22.90196 -9.14529,-30.97239 -4.26842,-3.89626 -13.32009,-4.06834 -19.48524,-6.80078 6.55803,2.30193 16.23524,2.13579 21.26853,5.85655 10.43683,7.71873 12.86033,21.1851 12.78537,31.91662 l 0,0 z"
         style="fill:#47dc19;fill-opacity:1;fill-rule:evenodd;stroke:none" />
      <path
         id="path4508-0"
         d="m 435.73033,482.6257 -3.99703,0 3.33034,-33.31007 0.66669,33.31007 z"
         style="fill:#47dc19;fill-opacity:1;fill-rule:evenodd;stroke:none" />
      <path
         id="path4510-1"
         d="m 446.46436,482.6257 -4.5067,0 c 2.30796,-9.34252 6.49842,-17.88971 16.14885,-24.45422 4.47179,-3.04111 9.56037,-5.63861 15.04944,-7.70632 -5.08328,2.47701 -9.59035,5.40819 -13.36277,8.66382 -8.13665,7.02085 -12.77522,15.00133 -13.32882,23.49672 z"
         style="fill:#47dc19;fill-opacity:1;fill-rule:evenodd;stroke:none" />
    </g>
    <g
       transform="translate(555.73824,23.040961)"
       id="g3045"
       style="fill:#84ff5e;fill-opacity:1"
       inkscape:export-filename="/home/sarah/platoniko/platoniko/media/img/grass.png"
       inkscape:export-xdpi="90.044647"
       inkscape:export-ydpi="90.044647">
      <path
         id="path4307"
         d="m 255.57724,482.6257 3.92941,0 c -0.78364,-1.59139 -0.10137,-3.29686 0.14806,-5.47659 0.26769,-2.38275 3.28202,-5.93081 5.07908,-7.88108 -2.38567,0.70696 -4.74142,2.43856 -6.46339,5.07829 -1.57066,2.41474 -2.57984,4.87562 -2.69316,8.27938 z"
         style="fill:#84ff5e;fill-opacity:1;fill-rule:evenodd;stroke:none" />
      <path
         id="path4315"
         d="m 266.53549,482.6257 3.74003,0 c 0.0868,-5.7124 -2.81993,-8.63306 -6.58278,-11.33278 -0.8477,-0.78755 -1.45212,-2.23562 -1.40699,-3.75527 0.0378,-1.52158 0.74558,-3.17933 1.9911,-4.23506 -1.4718,0.53802 -2.81935,1.93033 -3.45652,3.84924 -0.62988,1.92084 -0.51894,4.25226 0.4891,6.26242 0.75872,1.43808 1.59944,1.52613 2.51512,2.39986 2.30442,1.11326 3.14746,4.18562 2.71094,6.81159 l 0,0 z"
         style="fill:#84ff5e;fill-opacity:1;fill-rule:evenodd;stroke:none" />
      <path
         id="path4313"
         d="m 283.83492,482.6257 3.85808,0 c -0.0683,-2.41758 0.14654,-4.66176 0.66562,-7.15427 0.69168,-3.32391 1.9325,-6.63467 3.7093,-9.68452 -2.7042,1.93004 -3.25117,4.28509 -5.34708,7.38896 -1.57074,2.32631 -1.84622,6.59339 -2.88592,9.44983 z"
         style="fill:#84ff5e;fill-opacity:1;fill-rule:evenodd;stroke:none" />
      <path
         id="path4311"
         d="m 273.21022,482.6257 2.9357,0 c -0.36223,-7.58814 -2.05615,-14.21193 -2.88846,-21.68869 -1.10318,4.29461 -0.53613,11.16093 -0.21427,15.65005 0.20687,2.88523 0.79516,3.02348 0.16703,6.03864 z"
         style="fill:#84ff5e;fill-opacity:1;fill-rule:evenodd;stroke:none" />
      <path
         id="path4309"
         d="m 277.99381,482.6257 3.82994,0 c -0.89392,-4.86751 0.29954,-5.31278 -1.44625,-10.36989 -0.89797,-2.60122 -3.75255,-6.5724 -5.61843,-8.1304 1.21804,2.26015 2.12994,4.66078 2.72765,7.09175 0.98094,3.98916 1.11217,7.69722 0.50709,11.40854 z"
         style="fill:#84ff5e;fill-opacity:1;fill-rule:evenodd;stroke:none" />
      <path
         id="path4307-8"
         d="m 373.59224,482.6257 -3.92942,0 c 0.78365,-1.59139 0.10138,-3.29686 -0.14805,-5.4766 -0.26769,-2.38274 -3.28202,-5.9308 -5.07908,-7.88107 2.38567,0.70696 4.74142,2.43856 6.46339,5.07829 1.57065,2.41474 2.57984,4.87562 2.69316,8.27938 z"
         style="fill:#84ff5e;fill-opacity:1;fill-rule:evenodd;stroke:none" />
      <path
         id="path4315-5"
         d="m 321.06092,482.6257 -3.74003,0 c -0.0868,-5.7124 2.81993,-8.63306 6.58278,-11.33278 0.8477,-0.78755 1.45212,-2.23562 1.40699,-3.75527 -0.0378,-1.52158 -0.74558,-3.17933 -1.9911,-4.23506 1.4718,0.53802 2.81935,1.93033 3.45652,3.84924 0.62988,1.92084 0.51894,4.25226 -0.48911,6.26242 -0.75871,1.43808 -1.59943,1.52613 -2.51511,2.39986 -2.30442,1.11326 -3.14746,4.18562 -2.71094,6.81159 l 0,0 z"
         style="fill:#84ff5e;fill-opacity:1;fill-rule:evenodd;stroke:none" />
      <path
         id="path4313-0"
         d="m 360.03452,482.6257 -3.85807,0 c 0.0683,-2.41758 -0.14654,-4.66176 -0.66562,-7.15427 -0.69168,-3.32391 -1.9325,-6.63467 -3.70931,-9.68452 2.70421,1.93004 3.25118,4.28509 5.34709,7.38896 1.57073,2.32631 1.84621,6.59339 2.88591,9.44983 z"
         style="fill:#84ff5e;fill-opacity:1;fill-rule:evenodd;stroke:none" />
      <path
         id="path4311-2"
         d="m 362.69738,482.6257 -2.93569,0 c 0.36223,-7.58814 2.05614,-14.21193 2.88846,-21.68869 1.10318,4.29461 0.53612,11.16093 0.21426,15.65005 -0.20687,2.88523 -0.79515,3.02348 -0.16703,6.03864 z"
         style="fill:#84ff5e;fill-opacity:1;fill-rule:evenodd;stroke:none" />
      <path
         id="path4309-6"
         d="m 324.41118,482.6257 -3.82994,0 c 0.89392,-4.86751 -0.29953,-5.31278 1.44625,-10.36989 0.89797,-2.60122 3.75255,-6.5724 5.61843,-8.1304 -1.21803,2.26015 -2.12993,4.66078 -2.72765,7.09175 -0.98094,3.98916 -1.11217,7.69722 -0.50709,11.40854 z"
         style="fill:#84ff5e;fill-opacity:1;fill-rule:evenodd;stroke:none" />
      <path
         style="fill:#84ff5e;fill-opacity:1;fill-rule:evenodd;stroke:none"
         d="m 326.69149,482.6257 3.92941,0 c -0.78364,-1.59139 -0.10138,-3.29686 0.14806,-5.47659 0.26769,-2.38275 3.28201,-5.93081 5.07907,-7.88108 -2.38567,0.70696 -4.74142,2.43856 -6.46338,5.07829 -1.57066,2.41474 -2.57985,4.87562 -2.69316,8.27938 z"
         id="path4474" />
      <path
         style="fill:#84ff5e;fill-opacity:1;fill-rule:evenodd;stroke:none"
         d="m 368.32494,482.6257 3.74002,0 c 0.0868,-5.71241 -2.81992,-8.63306 -6.58278,-11.33278 -0.84769,-0.78755 -1.45211,-2.23562 -1.40698,-3.75527 0.0378,-1.52158 0.74558,-3.17933 1.99109,-4.23506 -1.47179,0.53802 -2.81934,1.93033 -3.45652,3.84924 -0.62987,1.92084 -0.51893,4.25225 0.48911,6.26242 0.75872,1.43808 1.59944,1.52612 2.51512,2.39985 2.30442,1.11327 3.14746,4.18563 2.71094,6.8116 l 0,0 z"
         id="path4484" />
      <path
         style="fill:#84ff5e;fill-opacity:1;fill-rule:evenodd;stroke:none"
         d="m 382.25481,482.6257 3.85808,0 c -0.0683,-2.41758 0.14654,-4.66176 0.66562,-7.15428 0.69168,-3.3239 1.9325,-6.63466 3.7093,-9.68451 -2.7042,1.93004 -3.25118,4.28508 -5.34709,7.38896 -1.57073,2.32631 -1.84621,6.59339 -2.88591,9.44983 z"
         id="path4486" />
      <path
         style="fill:#84ff5e;fill-opacity:1;fill-rule:evenodd;stroke:none"
         d="m 352.88036,482.6257 2.9357,0 c -0.36223,-7.58814 -2.05615,-14.21193 -2.88846,-21.68869 -1.10318,4.29461 -0.53613,11.16093 -0.21427,15.65005 0.20687,2.88523 0.79516,3.02348 0.16703,6.03864 z"
         id="path4488" />
      <path
         style="fill:#84ff5e;fill-opacity:1;fill-rule:evenodd;stroke:none"
         d="m 308.84918,482.6257 3.82995,0 c -0.89393,-4.86751 0.29953,-5.31278 -1.44626,-10.36989 -0.89797,-2.60122 -3.75255,-6.5724 -5.61843,-8.1304 1.21804,2.26015 2.12994,4.66078 2.72766,7.09175 0.98093,3.98916 1.11217,7.69722 0.50708,11.40854 z"
         id="path4490" />
      <path
         id="path4502"
         d="m 377.33394,482.6257 -3.92941,0 c 0.78364,-1.59139 0.10137,-3.29686 -0.14806,-5.4766 -0.26769,-2.38274 -3.28202,-5.9308 -5.07907,-7.88107 2.38567,0.70696 4.74141,2.43856 6.46338,5.07829 1.57065,2.41474 2.57984,4.87562 2.69316,8.27938 z"
         style="fill:#84ff5e;fill-opacity:1;fill-rule:evenodd;stroke:none" />
      <path
         id="path4512"
         d="m 300.48157,482.6257 -3.74002,0 c -0.0868,-5.71241 2.81992,-8.63306 6.58278,-11.33278 0.84769,-0.78755 1.45211,-2.23562 1.40698,-3.75527 -0.0378,-1.52158 -0.74558,-3.17933 -1.9911,-4.23506 1.4718,0.53802 2.81935,1.93033 3.45652,3.84924 0.62988,1.92084 0.51894,4.25226 -0.4891,6.26242 -0.75872,1.43808 -1.59944,1.52613 -2.51512,2.39985 -2.30442,1.11327 -3.14746,4.18563 -2.71094,6.8116 l 0,0 z"
         style="fill:#84ff5e;fill-opacity:1;fill-rule:evenodd;stroke:none" />
      <path
         id="path4514"
         d="m 303.90904,482.6257 -3.85807,0 c 0.0683,-2.41758 -0.14654,-4.66176 -0.66562,-7.15427 -0.69168,-3.32391 -1.9325,-6.63467 -3.70931,-9.68452 2.70421,1.93004 3.25118,4.28509 5.34709,7.38896 1.57073,2.32631 1.84621,6.59339 2.88591,9.44983 z"
         style="fill:#84ff5e;fill-opacity:1;fill-rule:evenodd;stroke:none" />
      <path
         id="path4516"
         d="m 351.47229,482.6257 -2.93569,0 c 0.36223,-7.58814 2.05614,-14.21193 2.88846,-21.68869 1.10318,4.29461 0.53612,11.16093 0.21426,15.65005 -0.20686,2.88523 -0.79515,3.02348 -0.16703,6.03864 z"
         style="fill:#84ff5e;fill-opacity:1;fill-rule:evenodd;stroke:none" />
      <path
         id="path4518"
         d="m 376.79497,482.6257 -3.82994,0 c 0.89392,-4.86751 -0.29954,-5.31278 1.44625,-10.36989 0.89797,-2.60122 3.75255,-6.5724 5.61843,-8.1304 -1.21804,2.26015 -2.12994,4.66078 -2.72765,7.09175 -0.98094,3.98916 -1.11218,7.69722 -0.50709,11.40854 z"
         style="fill:#84ff5e;fill-opacity:1;fill-rule:evenodd;stroke:none" />
      <path
         id="path4307-6"
         d="m 399.92133,482.6257 3.92942,0 c -0.78365,-1.59139 -0.10138,-3.29686 0.14805,-5.47659 0.26769,-2.38275 3.28202,-5.93081 5.07908,-7.88108 -2.38567,0.70696 -4.74142,2.43856 -6.46339,5.07829 -1.57065,2.41474 -2.57984,4.87562 -2.69316,8.27938 z"
         style="fill:#84ff5e;fill-opacity:1;fill-rule:evenodd;stroke:none" />
      <path
         id="path4315-3"
         d="m 443.80142,482.6257 3.74003,0 c 0.0868,-5.7124 -2.81993,-8.63306 -6.58278,-11.33278 -0.8477,-0.78755 -1.45212,-2.23562 -1.40699,-3.75527 0.0378,-1.52158 0.74558,-3.17933 1.9911,-4.23506 -1.4718,0.53802 -2.81935,1.93033 -3.45652,3.84924 -0.62988,1.92084 -0.51894,4.25226 0.4891,6.26242 0.75872,1.43808 1.59944,1.52613 2.51512,2.39986 2.30442,1.11326 3.14746,4.18562 2.71094,6.81159 l 0,0 z"
         style="fill:#84ff5e;fill-opacity:1;fill-rule:evenodd;stroke:none" />
      <path
         id="path4313-6"
         d="m 386.08812,482.6257 3.85807,0 c -0.0683,-2.41758 0.14654,-4.66176 0.66562,-7.15427 0.69168,-3.32391 1.9325,-6.63467 3.70931,-9.68452 -2.70421,1.93004 -3.25118,4.28509 -5.34709,7.38896 -1.57074,2.32631 -1.84621,6.59339 -2.88591,9.44983 z"
         style="fill:#84ff5e;fill-opacity:1;fill-rule:evenodd;stroke:none" />
      <path
         id="path4311-22"
         d="m 501.01525,482.6257 2.93569,0 c -0.36223,-7.58814 -2.05614,-14.21193 -2.88845,-21.68869 -1.10319,4.29461 -0.53613,11.16093 -0.21427,15.65005 0.20687,2.88523 0.79515,3.02348 0.16703,6.03864 z"
         style="fill:#84ff5e;fill-opacity:1;fill-rule:evenodd;stroke:none" />
      <path
         id="path4309-0"
         d="m 489.97198,482.6257 3.82994,0 c -0.89393,-4.86751 0.29953,-5.31278 -1.44626,-10.36989 -0.89796,-2.60122 -3.75255,-6.5724 -5.61843,-8.1304 1.21804,2.26015 2.12994,4.66078 2.72766,7.09175 0.98093,3.98916 1.11217,7.69722 0.50709,11.40854 z"
         style="fill:#84ff5e;fill-opacity:1;fill-rule:evenodd;stroke:none" />
      <path
         id="path4307-8-7"
         d="m 463.87535,482.6257 -3.92942,0 c 0.78365,-1.59139 0.10138,-3.29686 -0.14805,-5.4766 -0.26769,-2.38274 -3.28202,-5.9308 -5.07908,-7.88107 2.38567,0.70696 4.74142,2.43856 6.46339,5.07829 1.57065,2.41474 2.57984,4.87562 2.69316,8.27938 z"
         style="fill:#84ff5e;fill-opacity:1;fill-rule:evenodd;stroke:none" />
      <path
         id="path4315-5-0"
         d="m 434.29027,482.6257 -3.74003,0 c -0.0868,-5.7124 2.81992,-8.63306 6.58278,-11.33278 0.84769,-0.78755 1.45211,-2.23562 1.40698,-3.75527 -0.0378,-1.52158 -0.74557,-3.17933 -1.99109,-4.23506 1.47179,0.53802 2.81934,1.93033 3.45652,3.84924 0.62987,1.92084 0.51893,4.25226 -0.48911,6.26242 -0.75872,1.43808 -1.59944,1.52613 -2.51512,2.39986 -2.30442,1.11326 -3.14745,4.18562 -2.71093,6.81159 l 0,0 z"
         style="fill:#84ff5e;fill-opacity:1;fill-rule:evenodd;stroke:none" />
      <path
         id="path4313-0-3"
         d="m 520.59354,482.6257 -3.85807,0 c 0.0683,-2.41758 -0.14654,-4.66176 -0.66562,-7.15427 -0.69168,-3.32391 -1.9325,-6.63467 -3.70931,-9.68452 2.70421,1.93004 3.25118,4.28509 5.34709,7.38896 1.57073,2.32631 1.84621,6.59339 2.88591,9.44983 z"
         style="fill:#84ff5e;fill-opacity:1;fill-rule:evenodd;stroke:none" />
      <path
         id="path4311-2-2"
         d="m 472.37637,482.6257 -2.93569,0 c 0.36223,-7.58814 2.05614,-14.21193 2.88846,-21.68869 1.10318,4.29461 0.53612,11.16093 0.21426,15.65005 -0.20686,2.88523 -0.79515,3.02348 -0.16703,6.03864 z"
         style="fill:#84ff5e;fill-opacity:1;fill-rule:evenodd;stroke:none" />
      <path
         id="path4309-6-7"
         d="m 409.56221,482.6257 -3.82994,0 c 0.89393,-4.86751 -0.29953,-5.31278 1.44626,-10.36989 0.89796,-2.60122 3.75254,-6.5724 5.61843,-8.1304 -1.21804,2.26015 -2.12994,4.66078 -2.72766,7.09175 -0.98094,3.98916 -1.11217,7.69722 -0.50709,11.40854 z"
         style="fill:#84ff5e;fill-opacity:1;fill-rule:evenodd;stroke:none" />
      <path
         style="fill:#84ff5e;fill-opacity:1;fill-rule:evenodd;stroke:none"
         d="m 502.36878,482.6257 3.92942,0 c -0.78365,-1.59139 -0.10138,-3.29686 0.14805,-5.47659 0.26769,-2.38275 3.28202,-5.93081 5.07908,-7.88108 -2.38567,0.70696 -4.74142,2.43856 -6.46339,5.07829 -1.57065,2.41474 -2.57984,4.87562 -2.69316,8.27938 z"
         id="path4474-8" />
      <path
         style="fill:#84ff5e;fill-opacity:1;fill-rule:evenodd;stroke:none"
         d="m 493.83388,482.6257 3.74003,0 c 0.0868,-5.71241 -2.81992,-8.63306 -6.58278,-11.33278 -0.8477,-0.78755 -1.45212,-2.23562 -1.40698,-3.75527 0.0378,-1.52158 0.74557,-3.17933 1.99109,-4.23506 -1.4718,0.53802 -2.81934,1.93033 -3.45652,3.84924 -0.62987,1.92084 -0.51893,4.25225 0.48911,6.26242 0.75872,1.43808 1.59944,1.52612 2.51512,2.39985 2.30442,1.11327 3.14745,4.18563 2.71093,6.8116 l 0,0 z"
         id="path4484-2" />
      <path
         style="fill:#84ff5e;fill-opacity:1;fill-rule:evenodd;stroke:none"
         d="m 500.44807,482.6257 3.85807,0 c -0.0683,-2.41758 0.14654,-4.66176 0.66562,-7.15428 0.69168,-3.3239 1.9325,-6.63466 3.7093,-9.68451 -2.7042,1.93004 -3.25117,4.28508 -5.34708,7.38896 -1.57074,2.32631 -1.84622,6.59339 -2.88591,9.44983 z"
         id="path4486-4" />
      <path
         style="fill:#84ff5e;fill-opacity:1;fill-rule:evenodd;stroke:none"
         d="m 517.69273,482.6257 2.9357,0 c -0.36224,-7.58814 -2.05615,-14.21193 -2.88846,-21.68869 -1.10318,4.29461 -0.53613,11.16093 -0.21427,15.65005 0.20687,2.88523 0.79516,3.02348 0.16703,6.03864 z"
         id="path4488-1" />
      <path
         style="fill:#84ff5e;fill-opacity:1;fill-rule:evenodd;stroke:none"
         d="m 520.94446,482.6257 3.82994,0 c -0.89392,-4.86751 0.29954,-5.31278 -1.44625,-10.36989 -0.89797,-2.60122 -3.75255,-6.5724 -5.61843,-8.1304 1.21804,2.26015 2.12994,4.66078 2.72765,7.09175 0.98094,3.98916 1.11217,7.69722 0.50709,11.40854 z"
         id="path4490-9" />
      <path
         id="path4502-1"
         d="m 492.46535,482.6257 -3.92942,0 c 0.78364,-1.59139 0.10138,-3.29686 -0.14806,-5.4766 -0.26769,-2.38274 -3.28201,-5.9308 -5.07907,-7.88107 2.38567,0.70696 4.74142,2.43856 6.46338,5.07829 1.57066,2.41474 2.57985,4.87562 2.69317,8.27938 z"
         style="fill:#84ff5e;fill-opacity:1;fill-rule:evenodd;stroke:none" />
      <path
         id="path4512-4"
         d="m 512.91273,482.6257 -3.74003,0 c -0.0868,-5.71241 2.81993,-8.63306 6.58278,-11.33278 0.8477,-0.78755 1.45212,-2.23562 1.40699,-3.75527 -0.0378,-1.52158 -0.74558,-3.17933 -1.9911,-4.23506 1.4718,0.53802 2.81935,1.93033 3.45652,3.84924 0.62988,1.92084 0.51894,4.25226 -0.4891,6.26242 -0.75872,1.43808 -1.59944,1.52613 -2.51512,2.39985 -2.30442,1.11327 -3.14746,4.18563 -2.71094,6.8116 l 0,0 z"
         style="fill:#84ff5e;fill-opacity:1;fill-rule:evenodd;stroke:none" />
      <path
         id="path4514-2"
         d="m 425.78848,482.6257 -3.85808,0 c 0.0683,-2.41758 -0.14654,-4.66176 -0.66562,-7.15427 -0.69168,-3.32391 -1.9325,-6.63467 -3.7093,-9.68452 2.7042,1.93004 3.25118,4.28509 5.34709,7.38896 1.57073,2.32631 1.84621,6.59339 2.88591,9.44983 z"
         style="fill:#84ff5e;fill-opacity:1;fill-rule:evenodd;stroke:none" />
      <path
         id="path4516-7"
         d="m 484.2889,482.6257 -2.9357,0 c 0.36223,-7.58815 2.05615,-14.21193 2.88846,-21.68869 1.10318,4.29461 0.53613,11.16092 0.21427,15.65004 -0.20687,2.88524 -0.79516,3.02349 -0.16703,6.03865 z"
         style="fill:#84ff5e;fill-opacity:1;fill-rule:evenodd;stroke:none" />
      <path
         id="path4518-4"
         d="m 450.0647,482.6257 -3.82994,0 c 0.89392,-4.86751 -0.29954,-5.31278 1.44625,-10.36989 0.89797,-2.60122 3.75255,-6.5724 5.61843,-8.1304 -1.21804,2.26015 -2.12994,4.66078 -2.72765,7.09175 -0.98094,3.98916 -1.11217,7.69722 -0.50709,11.40854 z"
         style="fill:#84ff5e;fill-opacity:1;fill-rule:evenodd;stroke:none" />
    </g>
  </g>
</svg>
