<?xml version="1.0" encoding="UTF-8" standalone="no"?>
<!-- Created with Inkscape (http://www.inkscape.org/) -->

<svg
   xmlns:svg="http://www.w3.org/2000/svg"
   xmlns="http://www.w3.org/2000/svg"
   version="1.1"
   width="216.61099"
   height="235.77699"
   viewBox="0 0 216.611 235.777"
   id="svg2"
   xml:space="preserve"
   style="overflow:visible"><defs
   id="defs53" />
	
		<g
   id="Layer_1">
			<g
   id="g7">
				<path
   d="m 123.066,229.512 c 1.943,-0.289 3.383,-0.576 4.859,-1.008 1.332,-0.432 2.52,-0.9 3.42,-1.404 l 0,0 3.025,3.24 4.211,-5.869 0,0 c 1.873,0.072 3.023,0.541 3.852,1.404 0.793,0.865 0.396,2.953 0.613,3.637 0.107,0.576 0.107,0.576 0,0 l 0,0 c 1.439,0 2.592,-0.217 3.6,-0.793 0.971,-0.611 1.547,-1.439 2.016,-2.627 l 0,0 2.016,4.031 0,0 c 1.477,-1.512 2.484,-2.844 3.023,-3.852 0.541,-1.08 0.613,-1.836 0.217,-2.412 l 0,0 c 0.648,0.973 2.053,1.801 3.816,2.629 1.799,0.791 4.572,2.051 7.057,2.23 2.447,0.037 5.004,-0.971 7.271,-1.619 2.123,-0.721 3.887,-1.332 5.436,-2.232 l 0,0 c 0.072,0.828 0.289,1.584 0.793,2.412 0.432,0.721 1.043,1.512 1.836,2.232 l 0,0 1.799,-2.629 0,0 c 0.361,0.865 0.9,1.584 1.621,2.016 0.646,0.396 1.619,0.648 2.627,0.613 l 0,0 c -0.432,-0.973 -0.324,-1.729 0.18,-2.412 0.504,-0.648 1.512,-1.188 3.025,-1.621 l 0,0 2.627,4.861 3.023,-3.637 0,0 c 0.324,0.504 1.01,0.973 2.197,1.404 1.223,0.432 2.592,0.828 4.645,1.188 l 0,0 c -3.098,1.439 -6.625,2.449 -10.873,3.025 -4.355,0.504 -10.332,0.18 -14.328,0.432 -3.852,0.324 -6.229,1.223 -9.072,1.188 -3.023,-0.324 -5.795,-2.447 -8.855,-2.195 -3.24,0.287 -6.48,3.707 -9.863,4.031 -3.42,0.072 -6.984,-1.908 -9.865,-2.447 -2.951,-0.469 -4.896,0.395 -7.488,-0.182 -2.629,-0.646 -5.545,-1.906 -8.461,-3.634 l 0,0 z"
   id="path9"
   style="fill:#008000;fill-rule:evenodd" />
				<path
   d="m 24.318,208.164 c 2.448,-0.396 4.572,-0.793 6.372,-1.332 1.836,-0.576 3.348,-1.152 4.536,-1.873 l 0,0 3.996,4.285 5.58,-7.74 0,0 c 2.376,0.072 4.068,0.791 5.076,1.871 1.008,1.08 0.576,3.924 0.792,4.789 0.108,0.791 0.108,0.791 0,0 l 0,0 c 1.944,0 3.492,-0.361 4.788,-1.08 1.188,-0.793 2.124,-1.945 2.664,-3.457 l 0,0 2.664,5.328 0,0 c 2.016,-1.98 3.204,-3.707 3.996,-5.039 0.72,-1.369 0.756,-2.484 0.252,-3.205 l 0,0 c 0.972,1.26 2.664,2.412 5.076,3.457 2.376,1.008 6.084,2.807 9.324,2.916 3.132,0.072 6.696,-1.332 9.576,-2.125 2.808,-0.863 5.148,-1.836 7.164,-2.916 l 0,0 c 0.144,1.152 0.504,2.125 1.08,3.205 0.504,1.008 1.44,1.979 2.412,2.916 l 0,0 2.376,-3.457 0,0 c 0.54,1.152 1.116,2.088 2.124,2.664 0.936,0.576 2.088,0.793 3.456,0.793 l 0,0 c -0.576,-1.26 -0.432,-2.377 0.288,-3.205 0.792,-0.9 1.944,-1.656 3.996,-2.123 l 0,0 3.455,6.408 3.996,-4.789 0,0 c 0.434,0.648 1.404,1.26 2.916,1.836 1.549,0.576 3.457,1.117 6.121,1.621 l 0,0 c -4.033,1.906 -8.82,3.238 -14.365,3.996 -5.651,0.684 -13.751,0.107 -18.899,0.504 -5.184,0.322 -8.064,1.836 -11.988,1.619 -4.032,-0.287 -7.56,-3.348 -11.7,-2.951 -4.212,0.395 -8.712,4.895 -13.068,5.328 -4.464,0.322 -9.18,-2.629 -13.032,-3.168 -3.888,-0.721 -6.336,0.611 -9.864,-0.289 -3.636,-0.9 -7.128,-2.447 -11.16,-4.787 l 0,0 z"
   id="path11"
   style="fill:#008000;fill-rule:evenodd" />
				<path
   d="m 61.326,171.156 c 4.104,4.787 6.984,9.035 8.784,13.318 1.728,4.141 1.548,7.992 1.836,11.701 0.252,3.672 0.036,6.947 -0.504,10.115 l 0,0 c 2.124,1.26 4.608,1.98 7.992,1.873 3.276,-0.109 7.128,-0.9 11.7,-2.377 l 0,0 c 0.684,-5.473 0.684,-10.043 0,-14.4 -0.792,-4.391 -2.304,-5.615 -4.248,-11.16 -1.944,-5.615 -4.428,-12.707 -7.452,-21.852 l 0,0 c -6.012,4.249 -12.06,8.497 -18.108,12.782 l 0,0 z"
   id="path13"
   style="fill:#a16121;fill-rule:evenodd" />
				<path
   d="m 158.742,228.684 c 0.611,-3.527 1.008,-6.373 0.791,-9.072 -0.18,-2.629 0,-3.275 -1.836,-6.66 -1.906,-3.527 -5.111,-8.137 -9.611,-14.111 l 0,0 15.984,-5.832 0,0 c 1.547,3.672 3.061,7.307 4.535,10.908 1.441,3.6 3.457,6.551 4.248,10.656 0.721,4.066 0.504,8.494 -0.252,13.57 l 0,0 c -3.6,2.557 -6.479,3.889 -8.783,3.996 -2.412,0.072 -3.923,-1.08 -5.076,-3.455 l 0,0 z"
   id="path15"
   style="fill:#a16121;fill-rule:evenodd" />
				<path
   d="m 61.902,13.763 c -3.564,-0.648 -6.264,-0.576 -8.1,0.216 -1.944,0.72 -2.916,1.692 -2.916,4.284 0,2.592 1.044,6.228 3.132,11.052 l 0,0 c -3.672,-0.432 -6.48,-0.576 -8.568,-0.432 -2.052,0.144 -3.024,0.072 -4.032,1.332 -1.116,1.224 -2.088,3.204 -2.484,5.652 -0.468,2.376 -0.54,4.896 -0.216,8.1 l 0,0 c -1.872,-0.936 -3.636,-1.26 -5.436,-1.116 -1.8,0.072 -4.572,0.612 -5.4,2.016 -0.9,1.44 -0.504,3.816 0.216,6.3 0.756,2.34 1.98,4.896 4.068,7.668 l 0,0 c -5.868,1.368 -9.792,2.628 -12.168,3.636 -2.412,0.972 -2.232,0.216 -1.8,2.448 0.432,2.16 1.764,5.652 4.284,10.62 l 0,0 c -2.556,-0.108 -4.752,0.36 -6.3,1.548 -1.692,1.08 -3.42,2.304 -3.384,5.184 -0.072,2.88 1.152,6.768 3.384,11.952 l 0,0 c -3.744,-0.324 -5.94,0.324 -7.02,1.8 -1.08,1.476 -0.18,3.888 0.9,7.236 1.008,3.276 2.7,7.524 5.22,12.6 l 0,0 c -4.824,0.648 -8.28,1.476 -10.368,2.484 -2.232,1.008 -3.78,0.216 -2.268,3.6 1.548,3.275 5.4,8.568 11.7,16.02 l 0,0 c -2.376,3.457 -3.276,6.229 -2.7,8.316 0.504,1.98 2.484,3.24 6.084,4.068 3.636,0.791 8.604,0.971 15.336,0.684 l 0,0 c -2.448,3.457 -3.708,6.336 -4.068,8.783 -0.36,2.377 0.324,4.752 2.052,5.869 1.656,0.936 4.86,0.756 8.1,0.432 3.168,-0.287 6.732,-1.08 10.836,-2.232 l 0,0 c -1.872,2.844 -2.7,5.473 -2.484,7.885 0.144,2.412 1.296,5.184 3.6,6.516 2.232,1.152 5.544,2.412 9.936,0.863 4.392,-1.584 9.864,-4.895 16.416,-10.08 l 0,0 c 4.464,3.025 8.316,5.473 11.952,7.201 3.492,1.691 5.328,3.492 9.252,3.168 3.888,-0.432 8.568,-2.195 14.184,-5.436 l 0,0 4.068,2.734 0,0 c -2.629,1.369 -4.031,2.916 -4.068,4.5 0,1.514 1.621,3.854 3.6,4.934 1.801,0.898 5.041,1.008 7.236,1.15 2.125,0.145 3.996,-0.107 5.617,-0.467 l 0,0 c -1.152,2.195 -1.945,4.104 -2.232,5.867 -0.432,1.729 -0.361,3.205 0.215,4.285 0.434,0.936 0.469,1.439 3.168,1.367 2.773,-0.18 6.984,-0.936 13.068,-2.268 l 0,0 c -1.439,2.52 -2.123,4.645 -2.051,6.516 0.07,1.836 0.719,3.313 2.482,4.285 1.693,0.756 4.717,1.584 7.668,0.684 2.953,-0.973 6.049,-2.953 9.686,-6.084 l 0,0 c 2.195,2.988 4.5,4.967 6.768,6.084 2.305,1.008 4.68,0.936 6.984,0.467 2.23,-0.504 5.58,-1.584 6.299,-3.383 0.576,-1.98 -0.143,-4.645 -2.447,-8.137 l 0,0 c 2.484,0.576 4.68,1.152 6.732,1.584 1.979,0.469 3.563,1.225 5.184,1.152 1.691,-0.145 3.816,-0.18 4.283,-2.053 0.252,-1.979 -0.467,-5.039 -2.447,-9.467 l 0,0 c 4.607,0.287 8.207,0.143 10.801,-0.434 2.592,-0.574 4.211,-1.33 4.715,-2.951 0.432,-1.764 -0.359,-4.068 -2.232,-7.199 l 0,0 c 3.781,-3.24 6.336,-5.941 7.668,-8.102 1.297,-2.195 1.549,-3.707 0.217,-4.967 -1.404,-1.297 -4.213,-2.268 -8.568,-2.916 l 0,0 c 1.98,-3.816 3.133,-6.877 3.852,-9.469 0.686,-2.627 0.686,-4.859 0,-5.867 -0.791,-1.045 -2.375,-1.404 -4.752,-0.684 l 0,0 c 2.125,-3.025 3.133,-5.508 3.168,-7.453 -0.035,-1.98 -1.691,-3.313 -3.168,-4.283 -1.512,-1.008 -3.635,-1.656 -6.084,-1.801 l 0,0 c 2.953,-2.123 4.428,-4.068 4.717,-5.832 0.107,-1.871 -1.332,-3.275 -3.348,-4.752 -1.98,-1.439 -4.717,-2.592 -8.352,-3.6 l 0,0 c 2.268,-2.772 3.672,-5.148 4.066,-6.984 0.361,-1.872 0.613,-2.88 -1.584,-4.284 -2.303,-1.476 -6.119,-3.096 -11.736,-4.716 l 0,0 c 1.514,-2.232 2.342,-4.212 2.484,-5.652 0.145,-1.512 -0.035,-2.916 -1.799,-3.384 -1.945,-0.54 -4.969,-0.468 -9.469,0.216 l 0,0 c 1.115,-3.24 0.469,-5.292 -1.801,-6.3 -2.375,-1.044 -6.264,-0.792 -11.951,0.468 l 0,0 c 1.045,-3.06 1.549,-5.616 1.367,-7.668 -0.215,-2.124 -1.15,-4.356 -2.268,-4.752 -1.188,-0.504 -3.383,1.224 -4.5,2.268 -1.08,0.972 -1.799,2.52 -2.016,3.816 -0.324,1.224 -0.324,2.376 0,3.6 l 0,0 c -4.031,-0.504 -6.695,-0.396 -8.137,0.468 -1.402,0.792 -0.898,2.664 -0.432,4.5 0.324,1.8 1.152,3.78 2.484,6.084 l 0,0 c -2.232,-0.828 -4.141,-1.152 -5.867,-1.116 -1.801,0.036 -3.168,0.432 -4.5,1.332 l 0,0 c 1.799,-4.752 2.699,-8.46 2.699,-11.268 -0.035,-2.916 -0.611,-4.14 -2.699,-5.616 -2.053,-1.512 -5.293,-2.521 -9.721,-3.168 l 0,0 c 3.637,-2.556 5.4,-4.86 5.436,-6.768 -0.035,-1.98 -2.627,-3.348 -5.436,-4.932 C 123.028,62 119.177,60.488 114.21,59.048 l 0,0 c 2.627,-3.06 4.283,-5.832 4.967,-8.316 0.648,-2.664 2.016,-4.464 -0.9,-6.768 -2.951,-2.34 -8.639,-4.464 -16.919,-6.768 l 0,0 c 2.628,-2.952 3.996,-5.148 4.5,-6.984 0.288,-1.836 0.54,-3.384 -2.016,-3.816 -2.52,-0.468 -6.876,-0.216 -13.068,0.9 l 0,0 c 0.36,-4.464 -1.044,-7.416 -4.068,-9 -3.06,-1.62 -7.74,-1.728 -14.184,-0.468 l 0,0 c 0.864,-4.5 1.26,-7.884 1.332,-10.584 0.036,-2.7 0.036,-4.608 -1.116,-5.184 -1.404,-0.648 -4.932,0.792 -6.552,1.8 -1.692,1.044 -2.412,2.52 -3.132,4.284 -0.792,1.659 -1.044,3.531 -1.152,5.619 l 0,0 z"
   id="path17"
   style="fill:#61a121;fill-rule:evenodd" />
				<path
   d="m 159.678,202.727 c -4.176,4.752 -7.813,7.057 -11.303,7.453 -3.529,0.215 -8.137,-3.564 -9.252,-5.652 -1.152,-2.053 -0.252,-4.5 2.555,-6.947 l 0,0 c -7.416,2.303 -12.168,2.592 -14.4,1.008 -2.268,-1.729 -1.871,-5.148 1.045,-10.801 l 0,0 c -7.561,0.432 -12.313,-0.252 -14.652,-2.053 -2.268,-1.799 -1.98,-4.715 1.008,-8.746 l 0,0 c -6.552,-5.941 -9.755,-10.117 -9.755,-13.105 0,-2.879 3.204,-4.428 9.755,-4.355 l 0,0 c -3.527,-6.805 -5.148,-11.557 -4.86,-14.4 0.288,-2.916 2.375,-3.635 6.409,-2.592 l 0,0 c -2.736,-4.5 -3.672,-7.885 -2.809,-10.008 0.9,-2.195 3.457,-3.275 7.957,-3.096 l 0,0 c -3.709,-4.033 -5.51,-6.984 -5.4,-9 0.107,-2.016 3.744,-2.628 5.904,-3.096 2.016,-0.576 4.211,-0.612 6.443,-0.252 l 0,0 c -3.42,-4.86 -4.752,-8.244 -3.852,-10.008 0.863,-1.836 3.816,-2.052 9,-0.792 l 0,0 c -3.924,-1.296 -6.156,-1.044 -6.697,1.044 -0.576,2.052 0.541,5.688 3.35,11.052 l 0,0 c -4.896,0.36 -8.102,1.08 -9.758,2.304 -1.619,1.115 -1.115,2.988 -0.287,4.645 0.648,1.691 2.16,3.49 4.393,5.398 l 0,0 c -4.861,0.037 -7.777,1.189 -8.748,3.602 -0.973,2.303 -0.072,5.867 2.844,10.547 l 0,0 c -3.348,-0.215 -5.328,0.289 -5.939,1.512 -0.613,1.225 0.863,3.025 2.051,5.689 1.117,2.592 2.484,5.795 4.393,9.756 l 0,0 c -5.076,-0.109 -8.424,0.324 -10.044,1.295 -1.656,1.045 -1.296,2.305 0.252,4.607 1.513,2.232 4.464,4.934 8.999,8.496 l 0,0 c -2.555,3.385 -3.707,5.869 -3.6,7.453 0.109,1.477 1.621,1.691 4.393,2.051 2.809,0.361 6.875,0.576 12.348,0.506 l 0,0 c -2.771,4.715 -3.924,7.848 -3.852,9.791 0.107,1.729 1.547,1.656 4.607,1.297 3.023,-0.361 7.381,-1.477 13.355,-3.35 l 0,0 c -2.771,5.293 -3.707,8.93 -2.807,11.053 0.828,2.053 5.363,1.873 8.207,1.549 2.807,-0.398 5.723,-1.73 8.747,-3.855 l 0,0 z"
   id="path19"
   style="fill-rule:evenodd;stroke:#000000;stroke-width:0.036;stroke-miterlimit:10" />
				<path
   d="m 134.227,102.683 c -0.828,-4.392 -0.396,-7.308 1.295,-8.748 1.656,-1.476 4.572,-1.476 8.748,0 l 0,0 c -3.023,-5.184 -3.924,-8.64 -2.844,-10.512 1.008,-1.836 4.141,-2.232 9.252,-0.792 l 0,0 c 1.584,-5.22 3.205,-8.172 5.148,-9.252 1.836,-1.044 5.291,1.008 6.191,3.096 0.865,2.016 0.469,4.968 -1.043,9 l 0,0 c 6.227,-1.44 10.332,-1.62 12.6,-0.54 2.16,1.044 2.375,3.313 0.504,6.948 l 0,0 c 6.984,-1.224 11.088,-1.044 12.6,0.54 1.404,1.584 0.217,4.536 -3.852,9 l 0,0 c 7.74,0.936 12.275,2.736 13.896,5.4 1.512,2.664 -0.037,6.12 -4.645,10.512 l 0,0 c 7.271,1.799 11.34,3.78 12.6,5.94 1.225,2.123 -0.576,4.428 -5.4,6.912 l 0,0 c 2.916,-2.484 3.564,-4.789 1.801,-6.912 -1.801,-2.16 -5.867,-4.141 -12.348,-5.94 l 0,0 c 4.645,-3.636 5.977,-6.624 4.393,-9.252 -1.801,-2.628 -6.373,-4.716 -14.4,-6.408 l 0,0 c 3.852,-3.888 5.039,-6.372 4.104,-7.452 -1.08,-1.152 -4.465,-0.684 -10.297,1.008 l 0,0 c -0.756,-4.32 -2.158,-7.056 -4.607,-8.208 -2.484,-1.224 -5.615,-0.756 -9.791,1.26 l 0,0 c 1.26,-7.128 1.475,-11.232 0.791,-12.6 -0.721,-1.26 -4.428,2.88 -5.148,4.644 -0.791,1.692 -0.756,3.492 0.252,5.4 l 0,0 c -4.859,-0.864 -8.027,-1.044 -9.504,-0.252 -1.512,0.72 -0.18,2.628 0.504,4.608 0.648,1.908 1.549,4.176 3.098,6.948 l 0,0 c -4.789,-1.656 -8.174,-1.944 -10.549,-1.008 -2.306,0.9 -3.422,3.168 -3.349,6.66 l 0,0 z"
   id="path21"
   style="fill-rule:evenodd;stroke:#000000;stroke-width:0.036;stroke-miterlimit:10" />
				<path
   d="m 162.521,203.303 c 4.068,4.645 7.74,7.057 11.16,7.381 3.457,0.18 7.848,-3.492 9.145,-5.617 1.152,-2.123 0.18,-4.355 -2.52,-6.84 l 0,0 c 7.307,2.197 11.951,2.664 14.219,1.008 2.125,-1.691 1.873,-5.111 -1.043,-10.654 l 0,0 c 7.416,0.432 12.24,-0.289 14.473,-2.018 2.195,-1.871 1.906,-4.57 -1.01,-8.639 l 0,0 c 6.445,-5.832 9.613,-10.008 9.648,-12.961 -0.035,-2.916 -3.203,-4.355 -9.648,-4.32 l 0,0 c 3.42,-6.768 5.076,-11.375 4.824,-14.219 -0.252,-2.844 -2.412,-3.637 -6.336,-2.52 l 0,0 c 3.168,-4.682 4.141,-7.992 2.773,-9.938 -1.369,-2.016 -5.004,-2.555 -10.908,-1.764 l 0,0 c 4.859,0.037 7.596,1.225 8.639,3.564 0.938,2.305 0,5.725 -2.807,10.404 l 0,0 c 3.275,-0.217 5.184,0.287 5.867,1.512 0.541,1.152 -0.936,3.023 -2.053,5.615 -1.08,2.557 -2.52,5.725 -4.318,9.648 l 0,0 c 4.967,-0.18 8.314,0.287 9.898,1.26 1.584,0.9 1.225,2.377 -0.252,4.572 -1.584,2.195 -4.5,4.859 -8.891,8.389 l 0,0 c 2.482,3.311 3.672,5.76 3.563,7.344 -0.143,1.547 -1.584,1.584 -4.318,2.051 -2.846,0.361 -6.77,0.576 -12.168,0.504 l 0,0 c 2.664,4.609 3.924,7.777 3.779,9.648 -0.18,1.764 -1.656,1.584 -4.572,1.26 -3.061,-0.432 -7.271,-1.402 -13.176,-3.311 l 0,0 c 2.699,5.256 3.672,8.855 2.771,10.943 -0.971,2.016 -5.291,1.871 -8.1,1.512 -2.769,-0.429 -5.65,-1.654 -8.639,-3.814 l 0,0 z"
   id="path23"
   style="fill-rule:evenodd;stroke:#000000;stroke-width:0.036;stroke-miterlimit:10" />
				<path
   d="m 155.07,208.631 c 1.871,3.816 2.988,7.381 3.348,10.549 0.324,3.168 -0.107,5.939 -1.295,8.459 l 0,0 3.348,2.088 0,0 c 0.324,-5.65 0.107,-10.15 -0.793,-13.643 -0.971,-3.529 -2.375,-6.012 -4.608,-7.453 l 0,0 z"
   id="path25"
   style="fill-rule:evenodd;stroke:#000000;stroke-width:0.036;stroke-miterlimit:10" />
				<path
   d="m 169.219,207.84 c 1.908,3.887 2.879,7.271 3.311,10.547 0.252,3.133 -0.035,6.012 -1.26,8.496 l 0,0 3.348,2.053 0,0 c 0.324,-5.652 0.109,-10.152 -0.791,-13.645 -0.973,-3.527 -2.378,-6.012 -4.608,-7.451 l 0,0 z"
   id="path27"
   style="fill-rule:evenodd;stroke:#000000;stroke-width:0.036;stroke-miterlimit:10" />
				<path
   d="m 118.926,228.936 c 2.449,0.145 4.5,-0.037 6.697,-0.541 2.051,-0.504 4.066,-1.332 5.902,-2.482 l 0,0 3.564,3.852 3.42,-6.697 0,0 c 2.268,1.441 3.961,2.664 4.932,3.674 0.938,1.043 1.297,1.871 0.938,2.482 l 0,0 c 1.295,-0.684 2.123,-1.367 2.627,-2.195 0.504,-0.828 0.541,-1.691 0.252,-2.592 l 0,0 c 0.576,0.287 1.225,0.828 1.801,1.764 0.576,0.973 1.08,1.98 1.656,3.564 l 0,0 c 1.223,-1.621 2.088,-3.133 2.447,-4.537 0.359,-1.512 0.217,-2.699 -0.287,-3.959 l 0,0 c 1.727,1.188 2.375,2.52 1.943,4.393 -0.396,1.799 -1.908,3.852 -4.393,6.299 l 0,0 -1.908,-4.248 0,0 c -1.08,1.369 -2.088,2.377 -3.168,3.023 -1.152,0.648 -2.195,0.828 -3.42,0.686 l 0,0 c -0.072,-1.584 -0.252,-2.773 -0.684,-3.709 -0.396,-0.936 -1.045,-1.619 -1.801,-1.908 l 0,0 -4.643,6.697 -3.277,-4.393 0,0 c -2.412,1.225 -4.607,1.908 -6.73,2.053 -2.124,0.178 -4.032,-0.363 -5.868,-1.226 l 0,0 z"
   id="path29"
   style="fill-rule:evenodd;stroke:#000000;stroke-width:0.036;stroke-miterlimit:10" />
				<path
   d="m 203.598,229.008 c -1.727,0.107 -3.527,-0.072 -5.004,-0.396 -1.512,-0.396 -3.096,-1.008 -4.355,-1.836 l 0,0 -2.664,2.844 -2.52,-4.969 0,0 c -1.729,1.045 -2.953,1.908 -3.672,2.736 -0.793,0.756 -0.938,1.369 -0.721,1.836 l 0,0 c -0.936,-0.504 -1.584,-1.043 -1.943,-1.619 -0.361,-0.611 -0.469,-1.26 -0.18,-1.943 l 0,0 c -0.506,0.143 -0.9,0.719 -1.332,1.332 -0.469,0.574 -0.828,1.584 -1.225,2.627 l 0,0 c -0.936,-1.188 -1.549,-2.305 -1.836,-3.348 -0.252,-1.115 -0.18,-2.053 0.215,-2.953 l 0,0 c -1.295,0.865 -1.727,1.908 -1.439,3.277 0.324,1.332 1.369,2.879 3.275,4.645 l 0,0 1.404,-3.133 0,0 c 0.721,1.008 1.549,1.801 2.34,2.232 0.793,0.432 1.693,0.648 2.557,0.504 l 0,0 c 0,-1.08 0.217,-2.125 0.504,-2.736 0.324,-0.648 0.721,-1.26 1.332,-1.439 l 0,0 3.457,5.004 2.447,-3.277 0,0 c 1.764,0.938 3.42,1.404 4.969,1.549 1.619,0.106 2.951,-0.254 4.391,-0.937 l 0,0 z"
   id="path31"
   style="fill-rule:evenodd;stroke:#000000;stroke-width:0.036;stroke-miterlimit:10" />
				<path
   d="m 72.702,172.055 c -5.544,6.264 -10.404,9.434 -15.012,9.9 -4.608,0.289 -10.836,-4.715 -12.276,-7.523 -1.512,-2.809 -0.324,-5.832 3.42,-9.217 l 0,0 c -9.9,3.025 -16.092,3.529 -19.116,1.369 -3.024,-2.16 -2.52,-6.984 1.368,-14.328 l 0,0 c -10.008,0.539 -16.452,-0.324 -19.476,-2.736 -3.06,-2.412 -2.556,-6.229 1.368,-11.592 l 0,0 c -8.64,-7.885 -12.96,-13.465 -12.96,-17.424 0,-3.96 4.32,-5.761 12.96,-5.796 l 0,0 C 8.334,105.636 6.174,99.408 6.498,95.592 6.894,91.848 9.594,90.66 15.03,92.172 l 0,0 c -3.636,-6.012 -4.932,-10.404 -3.744,-13.32 1.152,-2.88 4.68,-4.284 10.584,-4.068 l 0,0 c -4.932,-5.364 -7.272,-9.216 -7.164,-11.952 0.108,-2.628 5.04,-3.492 7.848,-4.104 2.736,-0.756 5.58,-0.864 8.532,-0.324 l 0,0 C 26.442,51.78 24.822,47.568 25.938,45.084 27.09,42.6 30.978,42.384 37.89,44.04 l 0,0 c -5.184,-1.728 -8.136,-1.368 -8.856,1.368 -0.756,2.664 0.72,7.56 4.428,14.688 l 0,0 c -6.444,0.504 -10.764,1.476 -12.96,3.06 -2.232,1.62 -1.332,3.816 -0.36,6.156 0.936,2.196 2.772,4.536 5.796,7.164 l 0,0 c -6.48,0.072 -10.296,1.62 -11.592,4.788 -1.368,3.096 -0.072,7.812 3.744,14.004 l 0,0 c -4.464,-0.252 -6.984,0.432 -7.848,2.052 -0.9,1.62 1.26,4.068 2.736,7.488 1.368,3.384 3.348,7.704 5.796,12.96 l 0,0 c -6.696,-0.18 -11.124,0.396 -13.284,1.729 -2.124,1.26 -1.836,3.203 0.324,6.119 2.088,2.916 5.94,6.625 11.952,11.268 l 0,0 c -3.384,4.537 -4.932,7.705 -4.788,9.9 0.144,2.088 2.124,2.125 5.796,2.736 3.708,0.576 9.072,0.756 16.38,0.684 l 0,0 c -3.6,6.264 -5.256,10.404 -5.112,12.961 0.108,2.412 2.16,2.16 6.156,1.727 3.996,-0.467 9.864,-1.908 17.748,-4.463 l 0,0 c -3.708,6.984 -5.004,11.879 -3.744,14.688 1.188,2.771 7.092,2.484 10.908,2.053 3.744,-0.543 7.56,-2.199 11.592,-5.115 l 0,0 z"
   id="path33"
   style="fill-rule:evenodd;stroke:#000000;stroke-width:0.036;stroke-miterlimit:10" />
				<path
   d="M 38.934,39.288 C 37.818,33.384 38.43,29.64 40.626,27.66 c 2.232,-1.944 6.012,-1.944 11.628,0 l 0,0 c -3.96,-6.948 -5.22,-11.376 -3.78,-13.968 1.368,-2.592 5.508,-2.808 12.276,-1.044 l 0,0 c 2.052,-6.804 4.284,-10.944 6.84,-12.276 2.556,-1.332 6.912,1.332 8.208,4.104 1.152,2.664 0.648,6.588 -1.368,11.916 l 0,0 c 8.208,-1.836 13.824,-2.052 16.704,-0.648 2.916,1.44 3.096,4.464 0.684,9.216 l 0,0 c 9.288,-1.692 14.724,-1.476 16.74,0.648 1.909,2.124 0.252,6.012 -5.112,11.952 l 0,0 c 10.296,1.224 16.308,3.564 18.433,7.164 2.051,3.564 0,8.136 -6.156,14.004 l 0,0 c 9.576,2.448 15.156,4.932 16.74,7.848 1.512,2.844 -0.756,5.868 -7.201,9.216 l 0,0 c 3.852,-3.348 4.789,-6.372 2.412,-9.216 -2.412,-2.916 -7.74,-5.4 -16.379,-7.848 l 0,0 c 6.119,-4.716 7.955,-8.856 5.795,-12.276 -2.232,-3.564 -8.604,-6.228 -19.116,-8.532 l 0,0 c 5.04,-5.256 6.768,-8.46 5.472,-9.9 -1.476,-1.404 -5.832,-1.044 -13.644,1.368 l 0,0 C 88.866,23.556 86.814,19.956 83.646,18.444 80.442,16.896 76.158,17.472 70.65,20.172 l 0,0 c 1.62,-9.468 2.016,-14.904 1.044,-16.74 -1.008,-1.836 -5.832,3.924 -6.84,6.156 -1.08,2.196 -1.008,4.536 0.36,7.164 l 0,0 C 58.77,15.6 54.558,15.348 52.578,16.392 c -2.016,0.972 -0.216,3.492 0.684,6.156 0.864,2.556 2.088,5.58 4.104,9.216 l 0,0 C 50.994,29.604 46.458,29.1 43.362,30.396 c -3.096,1.259 -4.572,4.175 -4.428,8.892 l 0,0 z"
   id="path35"
   style="fill-rule:evenodd;stroke:#000000;stroke-width:0.036;stroke-miterlimit:10" />
				<path
   d="m 125.334,153.408 c -2.305,0.07 -4.859,0.035 -7.74,-0.109"
   id="path37"
   style="fill:none;stroke:#000000;stroke-width:0.036;stroke-miterlimit:10" />
				<path
   d="m 66.582,179.904 c 2.484,5.074 3.96,9.791 4.428,14.004 0.396,4.211 -0.072,7.92 -1.692,11.268 l 0,0 4.428,2.699 0,0 c 0.504,-7.451 0.108,-13.428 -1.044,-18.072 -1.188,-4.715 -3.276,-7.92 -6.12,-9.899 l 0,0 z"
   id="path39"
   style="fill-rule:evenodd;stroke:#000000;stroke-width:0.036;stroke-miterlimit:10" />
				<path
   d="m 85.338,178.859 c 2.556,5.076 3.996,9.791 4.464,14.004 0.432,4.213 -0.144,7.92 -1.728,11.268 l 0,0 4.428,2.736 0,0 c 0.576,-7.451 0.108,-13.393 -1.008,-18.107 -1.188,-4.68 -3.24,-8.03 -6.156,-9.901 l 0,0 z"
   id="path41"
   style="fill-rule:evenodd;stroke:#000000;stroke-width:0.036;stroke-miterlimit:10" />
				<path
   d="m 18.594,206.867 c 3.168,0.107 6.084,0 8.892,-0.721 2.808,-0.611 5.364,-1.836 7.812,-3.275 l 0,0 4.752,5.076 4.536,-8.893 0,0 c 3.024,1.836 5.256,3.564 6.552,4.896 1.26,1.297 1.728,2.484 1.26,3.275 l 0,0 c 1.692,-0.863 2.844,-1.836 3.456,-2.916 0.648,-1.043 0.72,-2.195 0.36,-3.455 l 0,0 c 0.828,0.396 1.62,1.188 2.376,2.375 0.756,1.225 1.44,2.701 2.196,4.717 l 0,0 c 1.728,-2.16 2.772,-4.104 3.276,-5.977 0.468,-1.871 0.396,-3.635 -0.36,-5.291 l 0,0 c 2.232,1.512 3.024,3.455 2.52,5.832 -0.54,2.375 -2.52,5.111 -5.796,8.352 l 0,0 -2.556,-5.615 0,0 c -1.404,1.908 -2.7,3.096 -4.176,3.996 -1.476,0.828 -2.952,1.08 -4.572,0.898 l 0,0 c -0.108,-2.088 -0.36,-3.672 -0.9,-4.895 -0.54,-1.26 -1.332,-2.16 -2.376,-2.557 l 0,0 -6.156,8.893 -4.392,-5.797 0,0 c -3.204,1.656 -6.12,2.52 -8.892,2.736 -2.844,0.147 -5.4,-0.357 -7.812,-1.654 l 0,0 z"
   id="path43"
   style="fill-rule:evenodd;stroke:#000000;stroke-width:0.036;stroke-miterlimit:10" />
				<path
   d="m 130.986,206.975 c -2.377,0.145 -4.537,-0.035 -6.625,-0.539 -2.051,-0.576 -4.031,-1.26 -5.795,-2.447 l 0,0 -3.527,3.779 -3.35,-6.588 0,0 c -2.267,1.477 -3.887,2.555 -4.859,3.635 -0.972,1.01 -1.296,1.766 -0.972,2.412 l 0,0 c -1.296,-0.684 -2.052,-1.402 -2.556,-2.16 -0.432,-0.756 -0.612,-1.654 -0.252,-2.555 l 0,0 c -0.648,0.287 -1.188,0.828 -1.764,1.764 -0.54,0.863 -1.08,1.98 -1.62,3.492 l 0,0 c -1.26,-1.656 -2.124,-2.953 -2.448,-4.428 -0.396,-1.441 -0.252,-2.701 0.288,-3.924 l 0,0 c -1.692,1.115 -2.376,2.555 -1.908,4.318 0.396,1.766 1.836,3.781 4.32,6.193 l 0,0 1.908,-4.176 0,0 c 1.008,1.367 1.944,2.412 3.096,2.988 1.116,0.574 2.196,0.791 3.384,0.646 l 0,0 c 0.036,-1.512 0.216,-2.771 0.684,-3.635 0.396,-0.973 0.972,-1.549 1.729,-1.873 l 0,0 4.607,6.588 3.24,-4.32 0,0 c 2.34,1.225 4.5,1.908 6.623,2.053 2.018,0.181 3.997,-0.358 5.797,-1.223 l 0,0 z"
   id="path45"
   style="fill-rule:evenodd;stroke:#000000;stroke-width:0.036;stroke-miterlimit:10" />
				<path
   d="m 127.891,75.792 c 4.607,-0.468 7.74,0.252 9.539,1.872 1.693,1.692 1.08,5.4 0.936,8.064 -0.215,2.52 -0.898,5.004 -2.051,7.308 l 0,0 c 1.225,-5.148 1.26,-9.144 -0.18,-11.988 -1.477,-2.953 -4.176,-4.609 -8.244,-5.256 l 0,0 z"
   id="path47"
   style="fill-rule:evenodd;stroke:#000000;stroke-width:0.036;stroke-miterlimit:10" />
				<path
   d="m 84.978,173.063 c 2.664,3.098 5.22,5.148 7.668,6.553 2.484,1.297 3.888,2.016 7.128,1.332 3.168,-0.756 7.164,-2.699 11.988,-5.832 l 0,0 c -6.408,2.088 -11.592,2.916 -16.127,2.629 -4.537,-0.397 -7.993,-1.909 -10.657,-4.682 l 0,0 z"
   id="path49"
   style="fill-rule:evenodd;stroke:#000000;stroke-width:0.036;stroke-miterlimit:10" />
			</g>
		</g>
	</svg>